<svg width="225" height="225" version="1.1" xmlns="http://www.w3.org/2000/svg" desc="Created with imagetracer.js version 1.2.6" ><path fill="rgb(256,256,256)" stroke="rgb(256,256,256)" stroke-width="1" opacity="0" d="M 0 0 L 225 0 L 225 225 L 0 225 L 0 0 Z M 42 15 L 38 17 L 41 18 L 195 18 L 195 19 L 195 67 L 189 67 L 173 74 L 162 74 L 146 67 L 131 68 L 118 74 L 107 74 L 92 67 L 80 67 L 63 74 L 53 74 L 37 67 L 30 67 L 30 25 L 29 22 L 27 26 L 27 105 L 28 106 L 29 117 Q 38 152 60 175 Q 81 197 113 210 Q 139 200 158 182 Q 185 158 196 117 L 197 106 L 198 105 L 198 17 L 197 15 L 42 15 Z M 60 25 L 56 27 Q 54 31 52 27 L 46 27 L 42 29 L 40 38 L 33 49 Q 31 54 35 53 Q 37 45 45 40 L 59 49 Q 58 53 61 56 L 55 60 L 53 59 L 49 60 L 51 61 L 50 61 L 48 64 L 53 63 L 52 67 L 57 63 Q 59 64 58 62 L 65 58 Q 67 59 66 57 L 70 54 L 72 59 L 68 62 L 70 62 L 68 65 L 69 67 L 72 63 Q 74 62 73 65 L 75 66 L 74 64 L 75 62 L 74 53 L 79 51 L 82 45 L 82 40 L 79 33 Q 74 24 60 25 Z M 114 25 L 109 29 L 106 27 L 99 28 L 96 31 L 95 37 L 87 50 L 89 53 L 99 40 Q 101 44 108 45 L 112 49 L 114 49 L 115 56 Q 114 59 110 59 L 108 59 L 104 60 L 106 61 L 103 62 L 102 64 L 108 63 L 107 65 L 108 66 L 115 60 L 119 59 L 120 57 L 125 54 L 126 60 L 121 63 L 123 63 L 124 63 L 122 67 L 127 63 L 129 66 L 130 59 L 128 54 L 132 52 L 136 47 L 136 38 L 132 30 L 123 25 L 114 25 Z M 168 25 L 163 29 L 160 27 L 153 28 L 149 33 L 148 39 L 142 48 L 143 53 L 149 44 L 154 40 L 166 49 L 168 49 L 169 56 L 164 60 L 162 59 L 158 60 L 160 61 L 156 62 L 157 64 L 162 63 L 161 65 L 162 67 L 162 66 L 169 60 L 173 59 L 175 55 L 179 54 L 180 60 L 175 63 L 177 63 L 178 63 L 176 67 L 178 67 L 181 63 L 183 66 L 184 61 L 183 57 Q 181 52 185 53 L 190 47 Q 192 36 187 32 L 177 25 L 168 25 Z " /><path fill="rgb(256,256,256)" stroke="rgb(256,256,256)" stroke-width="1" opacity="0" d="M 57.5 28 L 59.5 29 L 62.5 28 L 70.5 31 L 74 34.5 L 75 41.5 L 71.5 46 L 68 47 L 67 51 L 62.5 53 Q 59.8 51.6 61 47 L 57.5 47 L 53.5 43 L 48 40.5 L 45.5 37 L 39.5 42 L 42 38.5 L 43 35.5 L 43 33.5 L 46.5 29 Q 52.5 28 53.5 32 L 57.5 28 Z M 45 33 Q 42 37 46 36 L 45 33 Z " /><path fill="rgb(256,256,256)" stroke="rgb(256,256,256)" stroke-width="1" opacity="0" d="M 111.5 28 L 114.5 29 L 116.5 28 L 128 33.5 L 130 39.5 L 125.5 46 L 122 47 L 120.5 51 L 116.5 53 Q 117.1 48.4 114.5 47 L 110.5 46 L 101 38.5 Q 101.8 36.3 99.5 37 L 92 43.5 L 97 37.5 Q 95.8 31.3 99.5 30 L 104.5 29 L 107.5 32 L 111.5 28 Z M 100 33 L 98 35 Q 97 37 100 36 Q 103 35 100 33 Z " /><path fill="rgb(256,256,256)" stroke="rgb(256,256,256)" stroke-width="1" opacity="0" d="M 166.5 28 L 168.5 29 L 170.5 28 L 182 33.5 L 184 40.5 L 179.5 46 L 176 48.5 L 174.5 51 L 170 53 L 170 47 L 166.5 47 L 155 38.5 Q 155.8 36.3 153.5 37 L 147 42.5 L 151 37.5 Q 150.2 31.7 153.5 30 L 159.5 29 L 161 32 Q 163.7 33.1 163 30.5 L 166.5 28 Z M 154 33 Q 151 35 154 36 Q 157 35 154 33 Z " /><path fill="rgb(256,256,256)" stroke="rgb(256,256,256)" stroke-width="1" opacity="0" d="M 79.5 78 L 82 86 L 90 86.5 L 84 90.5 L 86 97.5 L 84.5 97 L 79.5 94 L 73.5 98 L 74 96.5 L 75 90.5 L 70 86.5 L 77 86 L 79.5 78 Z " /><path fill="rgb(256,256,256)" stroke="rgb(256,256,256)" stroke-width="1" opacity="0" d="M 145.5 78 L 148 86 L 155 86.5 L 150 90.5 L 152 97.5 L 150.5 98 L 146.5 94 L 144.5 94 L 139.5 98 L 140 96.5 L 141 90.5 L 136 86.5 L 143 86 L 145.5 78 Z " /><path fill="rgb(256,256,256)" stroke="rgb(256,256,256)" stroke-width="1" opacity="0" d="M 91.5 107 L 101.5 107 L 111 111.5 L 110.5 149 Q 105.6 142.4 92.5 144 L 81.5 149 L 73.5 149 L 70 148 L 70.5 110 L 71.5 111 L 82.5 111 L 91.5 107 Z " /><path fill="rgb(256,256,256)" stroke="rgb(256,256,256)" stroke-width="1" opacity="0" d="M 123.5 107 L 133.5 107 L 142.5 111 L 153.5 111 L 155 110.5 L 155 147.5 L 152.5 148 L 151.5 149 L 143.5 149 L 132.5 144 L 123.5 144 L 114.5 149 L 114 111.5 L 123.5 107 Z " /><path fill="rgb(256,256,256)" stroke="rgb(256,256,256)" stroke-width="1" opacity="0" d="M 66 112 L 68 112.5 L 68 148.5 L 69.5 149 Q 73 153 82.5 151 L 93.5 146 L 100.5 146 Q 107.3 147.3 111 151.5 L 110.5 153 Q 105.6 145.9 91.5 148 L 80.5 153 L 74.5 153 L 68.5 151 L 66 148.5 L 66 144.5 L 66 112 Z " /><path fill="rgb(256,256,256)" stroke="rgb(256,256,256)" stroke-width="1" opacity="0" d="M 157 112 L 159 112.5 L 159 145.5 L 158 148.5 L 156.5 151 L 150.5 153 L 144.5 153 L 133.5 148 L 122.5 148 L 114.5 153 L 114 151.5 Q 117.8 147.3 124.5 146 L 131.5 146 L 142.5 151 L 152.5 151 L 157 149 L 157 112 Z " /><path fill="rgb(256,256,256)" stroke="rgb(256,256,256)" stroke-width="1" opacity="0" d="M 56.5 114 L 61.5 115 L 64 114 L 64 149.5 L 66.5 152 Q 71.3 156.2 81.5 155 L 92.5 150 L 102.5 150 L 110 155.5 Q 110.8 158.1 107.5 157 L 108.5 159 L 116.5 159 L 118 157.5 L 115 157 L 118.5 152 Q 122.8 148.3 132.5 150 L 143.5 155 L 151.5 155 L 161 149.5 L 161 114.5 L 162.5 114 L 165.5 115 L 168.5 114 Q 171.5 115.5 168.5 117 L 162 116 Q 159.8 122 166.5 120 L 168.5 119 L 170 121.5 L 167.5 123 L 162 122 Q 159.8 128 166.5 126 L 168.5 125 L 170 128 L 167.5 129 L 162 128 Q 159.8 133.6 165.5 132 L 168.5 131 Q 171.5 132.5 168.5 134 L 163.5 133 L 162 136.5 L 165.5 138 L 170 137 L 168.5 140 L 162 139 Q 159.9 144.2 164.5 143 L 168.5 143 Q 170.8 142.3 170 144.5 L 167.5 146 L 162 145 Q 159.8 151 166.5 149 L 168.5 148 L 170 150.5 L 167.5 152 L 162.5 151 Q 156.6 158.1 141.5 156 L 131.5 151 L 124.5 151 L 118 154.5 L 121 157.5 L 120 158.5 L 119.5 160 L 105 160 L 104 157.5 L 106.5 154 Q 102.7 149.8 93.5 151 L 83.5 156 L 71.5 156 L 62.5 151 L 58.5 151 L 56.5 152 L 55 149.5 L 57.5 148 L 63 149 Q 65.3 143 58.5 145 L 56.5 146 L 55 143 L 57.5 142 L 59.5 144 L 63 142.5 Q 64.8 137.3 59.5 139 L 56.5 140 Q 53.5 138.5 56.5 137 L 61.5 138 L 63 134.5 L 59.5 133 L 56.5 134 Q 53.5 132.5 56.5 131 L 63 132 Q 65.1 126.8 60.5 128 L 56.5 128 Q 54.3 128.8 55 126.5 L 57.5 125 L 63 126 Q 65.3 120 58.5 122 L 56.5 123 L 55 120.5 L 57.5 119 L 63 120 Q 65.2 114.4 59.5 116 L 56.5 117 Q 53.5 115.5 56.5 114 Z " /><path fill="rgb(256,256,256)" stroke="rgb(256,256,256)" stroke-width="1" opacity="0" d="M 112.5 173 L 115 181 L 122 181.5 L 117 185.5 L 119 192.5 L 117.5 193 L 113.5 189 L 111.5 189 L 106.5 193 L 107 191.5 L 108 185.5 L 103 181.5 L 110 181 L 112.5 173 Z " /><path fill="rgb(5,5,5)" stroke="rgb(5,5,5)" stroke-width="1" opacity="0.9568627450980393" d="M 116.5 26 L 115.5 28 L 116.5 26 Z " /><path fill="rgb(5,5,5)" stroke="rgb(5,5,5)" stroke-width="1" opacity="0.9568627450980393" d="M 160.5 28 L 162 30.5 L 161 30.5 L 160.5 28 Z " /><path fill="rgb(5,5,5)" stroke="rgb(5,5,5)" stroke-width="1" opacity="0.9568627450980393" d="M 76.5 33 L 75.5 35 L 76.5 33 Z " /><path fill="rgb(5,5,5)" stroke="rgb(5,5,5)" stroke-width="1" opacity="0.9568627450980393" d="M 150.5 35 L 151 36.5 L 149 37.5 L 150.5 35 Z " /><path fill="rgb(5,5,5)" stroke="rgb(5,5,5)" stroke-width="1" opacity="0.9568627450980393" d="M 130.5 37 L 131.5 39 L 130.5 37 Z " /><path fill="rgb(5,5,5)" stroke="rgb(5,5,5)" stroke-width="1" opacity="0.9568627450980393" d="M 79.5 42 Q 82.5 43.5 79.5 45 Q 76.5 43.5 79.5 42 Z " /><path fill="rgb(5,5,5)" stroke="rgb(5,5,5)" stroke-width="1" opacity="0.9568627450980393" d="M 106.5 43 L 108.5 46 L 106.5 43 Z " /><path fill="rgb(5,5,5)" stroke="rgb(5,5,5)" stroke-width="1" opacity="0.9568627450980393" d="M 130.5 50 L 129.5 52 L 130.5 50 Z " /><path fill="rgb(5,5,5)" stroke="rgb(5,5,5)" stroke-width="1" opacity="0.9568627450980393" d="M 125.5 51 L 126.5 53 L 125.5 51 Z " /><path fill="rgb(5,5,5)" stroke="rgb(5,5,5)" stroke-width="1" opacity="0.9568627450980393" d="M 71.5 52 L 70.5 54 L 71.5 52 Z " /><path fill="rgb(5,5,5)" stroke="rgb(5,5,5)" stroke-width="1" opacity="0.9568627450980393" d="M 63.5 53 L 62.5 55 L 63.5 53 Z " /><path fill="rgb(5,5,5)" stroke="rgb(5,5,5)" stroke-width="1" opacity="0.9568627450980393" d="M 117.5 55 L 118.5 57 L 117.5 55 Z " /><path fill="rgb(5,5,5)" stroke="rgb(5,5,5)" stroke-width="1" opacity="0.9568627450980393" d="M 56.5 60 L 57.5 62 L 55 61.5 L 56.5 60 Z " /><path fill="rgb(5,5,5)" stroke="rgb(5,5,5)" stroke-width="1" opacity="0.9568627450980393" d="M 73.5 60 L 72.5 62 L 73.5 60 Z " /><path fill="rgb(5,5,5)" stroke="rgb(5,5,5)" stroke-width="1" opacity="0.9568627450980393" d="M 161.5 61 L 162.5 63 L 161.5 61 Z " /><path fill="rgb(5,5,5)" stroke="rgb(5,5,5)" stroke-width="1" opacity="0.9568627450980393" d="M 147.5 68 L 146.5 70 L 147.5 68 Z " /><path fill="rgb(5,5,5)" stroke="rgb(5,5,5)" stroke-width="1" opacity="0.9568627450980393" d="M 129.5 69 L 129.5 72 Q 126.5 70.5 129.5 69 Z " /><path fill="rgb(5,5,5)" stroke="rgb(5,5,5)" stroke-width="1" opacity="0.9568627450980393" d="M 135.5 70 L 134.5 72 L 135.5 70 Z " /><path fill="rgb(5,5,5)" stroke="rgb(5,5,5)" stroke-width="1" opacity="0.9568627450980393" d="M 148.5 73 L 150 74.5 L 149.5 77 L 148 75.5 L 148.5 73 Z " /><path fill="rgb(5,5,5)" stroke="rgb(5,5,5)" stroke-width="1" opacity="0.9568627450980393" d="M 48.5 74 L 49.5 76 L 48.5 74 Z " /><path fill="rgb(5,5,5)" stroke="rgb(5,5,5)" stroke-width="1" opacity="0.9568627450980393" d="M 70.5 74 L 69.5 76 L 68 75.5 L 70.5 74 Z " /><path fill="rgb(5,5,5)" stroke="rgb(5,5,5)" stroke-width="1" opacity="0.9568627450980393" d="M 153.5 74 L 156 75.5 L 154.5 76 L 153.5 74 Z " /><path fill="rgb(5,5,5)" stroke="rgb(5,5,5)" stroke-width="1" opacity="0.9568627450980393" d="M 63.5 75 L 60.5 79 L 63.5 75 Z " /><path fill="rgb(5,5,5)" stroke="rgb(5,5,5)" stroke-width="1" opacity="0.9568627450980393" d="M 65.5 75 L 66.5 77 L 65.5 75 Z " /><path fill="rgb(5,5,5)" stroke="rgb(5,5,5)" stroke-width="1" opacity="0.9568627450980393" d="M 73.5 75 L 72.5 77 L 73.5 75 Z " /><path fill="rgb(5,5,5)" stroke="rgb(5,5,5)" stroke-width="1" opacity="0.9568627450980393" d="M 78.5 75 L 78.5 78 Q 75.5 76.5 78.5 75 Z " /><path fill="rgb(5,5,5)" stroke="rgb(5,5,5)" stroke-width="1" opacity="0.9568627450980393" d="M 119.5 75 L 118.5 77 L 119.5 75 Z " /><path fill="rgb(5,5,5)" stroke="rgb(5,5,5)" stroke-width="1" opacity="0.9568627450980393" d="M 158.5 75 L 157.5 77 L 158.5 75 Z " /><path fill="rgb(5,5,5)" stroke="rgb(5,5,5)" stroke-width="1" opacity="0.9568627450980393" d="M 52.5 76 L 53.5 78 L 52.5 76 Z " /><path fill="rgb(5,5,5)" stroke="rgb(5,5,5)" stroke-width="1" opacity="0.9568627450980393" d="M 121.5 76 L 124 77.5 L 122.5 77 L 121.5 76 Z " /><path fill="rgb(5,5,5)" stroke="rgb(5,5,5)" stroke-width="1" opacity="0.9568627450980393" d="M 105.5 77 L 106.5 79 L 105.5 77 Z " /><path fill="rgb(5,5,5)" stroke="rgb(5,5,5)" stroke-width="1" opacity="0.9568627450980393" d="M 109.5 77 L 110.5 79 L 109.5 77 Z " /><path fill="rgb(5,5,5)" stroke="rgb(5,5,5)" stroke-width="1" opacity="0.9568627450980393" d="M 91.5 80 L 92.5 82 L 91.5 80 Z " /><path fill="rgb(5,5,5)" stroke="rgb(5,5,5)" stroke-width="1" opacity="0.9568627450980393" d="M 87.5 81 L 88.5 83 L 87.5 81 Z " /><path fill="rgb(5,5,5)" stroke="rgb(5,5,5)" stroke-width="1" opacity="0.9568627450980393" d="M 136.5 82 L 137.5 84 L 136.5 82 Z " /><path fill="rgb(5,5,5)" stroke="rgb(5,5,5)" stroke-width="1" opacity="0.9568627450980393" d="M 74.5 83 L 73.5 85 L 74.5 83 Z " /><path fill="rgb(5,5,5)" stroke="rgb(5,5,5)" stroke-width="1" opacity="0.9568627450980393" d="M 94.5 83 L 95.5 85 L 94.5 83 Z " /><path fill="rgb(5,5,5)" stroke="rgb(5,5,5)" stroke-width="1" opacity="0.9568627450980393" d="M 92.5 86 L 93.5 88 L 92.5 86 Z " /><path fill="rgb(5,5,5)" stroke="rgb(5,5,5)" stroke-width="1" opacity="0.9568627450980393" d="M 86.5 92 L 87.5 94 L 86.5 92 Z " /><path fill="rgb(5,5,5)" stroke="rgb(5,5,5)" stroke-width="1" opacity="0.9568627450980393" d="M 150.5 98 L 148.5 101 L 147 101.5 L 147.5 103 Q 144.5 101.5 147.5 100 L 150.5 98 Z " /><path fill="rgb(5,5,5)" stroke="rgb(5,5,5)" stroke-width="1" opacity="0.9568627450980393" d="M 82.5 99 L 83.5 101 L 82.5 99 Z " /><path fill="rgb(5,5,5)" stroke="rgb(5,5,5)" stroke-width="1" opacity="0.9568627450980393" d="M 136.5 101 Q 139.5 102.5 136.5 104 L 136.5 101 Z " /><path fill="rgb(5,5,5)" stroke="rgb(5,5,5)" stroke-width="1" opacity="0.9568627450980393" d="M 105.5 104 L 104.5 106 L 105.5 104 Z " /><path fill="rgb(5,5,5)" stroke="rgb(5,5,5)" stroke-width="1" opacity="0.9568627450980393" d="M 113.5 104 L 114.5 106 L 113.5 104 Z " /><path fill="rgb(5,5,5)" stroke="rgb(5,5,5)" stroke-width="1" opacity="0.9568627450980393" d="M 129.5 104 L 130.5 106 L 128 105.5 L 129.5 104 Z " /><path fill="rgb(5,5,5)" stroke="rgb(5,5,5)" stroke-width="1" opacity="0.9568627450980393" d="M 66.5 105 L 65.5 107 L 66.5 105 Z " /><path fill="rgb(5,5,5)" stroke="rgb(5,5,5)" stroke-width="1" opacity="0.9568627450980393" d="M 86.5 105 L 84.5 108 L 86.5 105 Z " /><path fill="rgb(5,5,5)" stroke="rgb(5,5,5)" stroke-width="1" opacity="0.9568627450980393" d="M 193.5 105 L 194 107 L 196 107.5 L 194.5 108 L 193.5 105 Z " /><path fill="rgb(5,5,5)" stroke="rgb(5,5,5)" stroke-width="1" opacity="0.9568627450980393" d="M 112.5 106 L 114.5 109 L 112.5 106 Z " /><path fill="rgb(5,5,5)" stroke="rgb(5,5,5)" stroke-width="1" opacity="0.9568627450980393" d="M 69.5 107 Q 72.3 108.2 70 109.5 L 69.5 111 L 69 109.5 L 69.5 107 Z " /><path fill="rgb(5,5,5)" stroke="rgb(5,5,5)" stroke-width="1" opacity="0.9568627450980393" d="M 152.5 107 L 155 108.5 L 153.5 108 L 152.5 107 Z " /><path fill="rgb(5,5,5)" stroke="rgb(5,5,5)" stroke-width="1" opacity="0.9568627450980393" d="M 66.5 108 L 68 108.5 L 65.5 110 L 66.5 108 Z " /><path fill="rgb(5,5,5)" stroke="rgb(5,5,5)" stroke-width="1" opacity="0.9568627450980393" d="M 140.5 108 L 141.5 110 L 140.5 108 Z " /><path fill="rgb(5,5,5)" stroke="rgb(5,5,5)" stroke-width="1" opacity="0.9568627450980393" d="M 69.5 112 L 70 120.5 L 69 120.5 L 69.5 112 Z " /><path fill="rgb(5,5,5)" stroke="rgb(5,5,5)" stroke-width="1" opacity="0.9568627450980393" d="M 155.5 112 L 156 114.5 L 155 114.5 L 155.5 112 Z " /><path fill="rgb(5,5,5)" stroke="rgb(5,5,5)" stroke-width="1" opacity="0.9568627450980393" d="M 61.5 116 L 60.5 118 L 59 117.5 L 61.5 116 Z " /><path fill="rgb(5,5,5)" stroke="rgb(5,5,5)" stroke-width="1" opacity="0.9568627450980393" d="M 171.5 124 L 172.5 126 L 171.5 124 Z " /><path fill="rgb(5,5,5)" stroke="rgb(5,5,5)" stroke-width="1" opacity="0.9568627450980393" d="M 172.5 127 L 173.5 129 L 172.5 127 Z " /><path fill="rgb(5,5,5)" stroke="rgb(5,5,5)" stroke-width="1" opacity="0.9568627450980393" d="M 69.5 128 L 70 146.5 L 69 146.5 L 69.5 128 Z " /><path fill="rgb(5,5,5)" stroke="rgb(5,5,5)" stroke-width="1" opacity="0.9568627450980393" d="M 57.5 129 L 58.5 131 L 57.5 129 Z " /><path fill="rgb(5,5,5)" stroke="rgb(5,5,5)" stroke-width="1" opacity="0.9568627450980393" d="M 172.5 133 L 171.5 135 L 172.5 133 Z " /><path fill="rgb(5,5,5)" stroke="rgb(5,5,5)" stroke-width="1" opacity="0.9568627450980393" d="M 173.5 136 L 171.5 139 L 170 138.5 L 173.5 136 Z " /><path fill="rgb(5,5,5)" stroke="rgb(5,5,5)" stroke-width="1" opacity="0.9568627450980393" d="M 170.5 140 L 171.5 142 L 170.5 140 Z " /><path fill="rgb(5,5,5)" stroke="rgb(5,5,5)" stroke-width="1" opacity="0.9568627450980393" d="M 167.5 146 L 168.5 148 L 167.5 146 Z " /><path fill="rgb(5,5,5)" stroke="rgb(5,5,5)" stroke-width="1" opacity="0.9568627450980393" d="M 47.5 147 L 49 147.5 L 47 148.5 L 47.5 150 Q 44.5 148.5 47.5 147 Z " /><path fill="rgb(5,5,5)" stroke="rgb(5,5,5)" stroke-width="1" opacity="0.9568627450980393" d="M 176.5 147 L 177.5 149 L 176.5 147 Z " /><path fill="rgb(5,5,5)" stroke="rgb(5,5,5)" stroke-width="1" opacity="0.9568627450980393" d="M 50.5 148 L 53 148.5 Q 50.9 151.8 50.5 148 Z " /><path fill="rgb(5,5,5)" stroke="rgb(5,5,5)" stroke-width="1" opacity="0.9568627450980393" d="M 174.5 148 L 175.5 150 L 174.5 148 Z " /><path fill="rgb(5,5,5)" stroke="rgb(5,5,5)" stroke-width="1" opacity="0.9568627450980393" d="M 178.5 150 L 177.5 152 L 178.5 150 Z " /><path fill="rgb(5,5,5)" stroke="rgb(5,5,5)" stroke-width="1" opacity="0.9568627450980393" d="M 124.5 153 L 123.5 155 L 124.5 153 Z " /><path fill="rgb(5,5,5)" stroke="rgb(5,5,5)" stroke-width="1" opacity="0.9568627450980393" d="M 128.5 155 L 129.5 157 L 128.5 155 Z " /><path fill="rgb(5,5,5)" stroke="rgb(5,5,5)" stroke-width="1" opacity="0.9568627450980393" d="M 159.5 155 L 159.5 158 Q 156.5 156.5 159.5 155 Z " /><path fill="rgb(5,5,5)" stroke="rgb(5,5,5)" stroke-width="1" opacity="0.9568627450980393" d="M 86.5 156 L 85.5 160 Q 82 158 86.5 156 Z " /><path fill="rgb(5,5,5)" stroke="rgb(5,5,5)" stroke-width="1" opacity="0.9568627450980393" d="M 64.5 157 L 65.5 159 L 64.5 157 Z " /><path fill="rgb(5,5,5)" stroke="rgb(5,5,5)" stroke-width="1" opacity="0.9568627450980393" d="M 70.5 157 L 69.5 159 L 70.5 157 Z " /><path fill="rgb(5,5,5)" stroke="rgb(5,5,5)" stroke-width="1" opacity="0.9568627450980393" d="M 77.5 157 L 78.5 159 L 77.5 157 Z " /><path fill="rgb(5,5,5)" stroke="rgb(5,5,5)" stroke-width="1" opacity="0.9568627450980393" d="M 141.5 158 L 140.5 160 L 141.5 158 Z " /><path fill="rgb(5,5,5)" stroke="rgb(5,5,5)" stroke-width="1" opacity="0.9568627450980393" d="M 157.5 158 L 158.5 160 L 157.5 158 Z " /><path fill="rgb(5,5,5)" stroke="rgb(5,5,5)" stroke-width="1" opacity="0.9568627450980393" d="M 161.5 168 L 161.5 171 Q 158.5 169.5 161.5 168 Z " /><path fill="rgb(5,5,5)" stroke="rgb(5,5,5)" stroke-width="1" opacity="0.9568627450980393" d="M 164.5 168 L 165.5 170 L 164.5 168 Z " /><path fill="rgb(5,5,5)" stroke="rgb(5,5,5)" stroke-width="1" opacity="0.9568627450980393" d="M 117.5 169 L 116.5 171 L 117.5 169 Z " /><path fill="rgb(5,5,5)" stroke="rgb(5,5,5)" stroke-width="1" opacity="0.9568627450980393" d="M 153.5 176 L 153.5 179 Q 150.5 177.5 153.5 176 Z " /><path fill="rgb(5,5,5)" stroke="rgb(5,5,5)" stroke-width="1" opacity="0.9568627450980393" d="M 156.5 176 L 157.5 178 L 156.5 176 Z " /><path fill="rgb(5,5,5)" stroke="rgb(5,5,5)" stroke-width="1" opacity="0.9568627450980393" d="M 65.5 177 L 68 177.5 Q 65.9 180.8 65.5 177 Z " /><path fill="rgb(5,5,5)" stroke="rgb(5,5,5)" stroke-width="1" opacity="0.9568627450980393" d="M 102.5 177 L 102.5 180 Q 99.5 178.5 102.5 177 Z " /><path fill="rgb(5,5,5)" stroke="rgb(5,5,5)" stroke-width="1" opacity="0.9568627450980393" d="M 108.5 177 L 109.5 179 L 108.5 177 Z " /><path fill="rgb(5,5,5)" stroke="rgb(5,5,5)" stroke-width="1" opacity="0.9568627450980393" d="M 106.5 178 L 105.5 180 L 106.5 178 Z " /><path fill="rgb(5,5,5)" stroke="rgb(5,5,5)" stroke-width="1" opacity="0.9568627450980393" d="M 96.5 181 L 97.5 183 L 96.5 181 Z " /><path fill="rgb(5,5,5)" stroke="rgb(5,5,5)" stroke-width="1" opacity="0.9568627450980393" d="M 123.5 181 L 124.5 183 L 123.5 181 Z " /><path fill="rgb(5,5,5)" stroke="rgb(5,5,5)" stroke-width="1" opacity="0.9568627450980393" d="M 77.5 185 L 78.5 187 L 77.5 185 Z " /><path fill="rgb(5,5,5)" stroke="rgb(5,5,5)" stroke-width="1" opacity="0.9568627450980393" d="M 107.5 186 L 106.5 188 L 107.5 186 Z " /><path fill="rgb(5,5,5)" stroke="rgb(5,5,5)" stroke-width="1" opacity="0.9568627450980393" d="M 137.5 193 L 137.5 195 L 139 195.5 L 137.5 196 Q 134.5 194.5 137.5 193 Z " /><path fill="rgb(5,5,5)" stroke="rgb(5,5,5)" stroke-width="1" opacity="0.9568627450980393" d="M 92.5 196 L 91.5 198 L 90 197.5 L 92.5 196 Z " /><path fill="rgb(5,5,5)" stroke="rgb(5,5,5)" stroke-width="1" opacity="0.9568627450980393" d="M 115.5 196 L 115.5 199 L 113 197.5 L 115.5 196 Z " /><path fill="rgb(5,5,5)" stroke="rgb(5,5,5)" stroke-width="1" opacity="0.9568627450980393" d="M 105.5 200 L 109 202.5 L 107.5 202 L 105.5 200 Z " /><path fill="rgb(5,5,5)" stroke="rgb(5,5,5)" stroke-width="1" opacity="0.9568627450980393" d="M 117.5 203 L 118.5 205 L 117.5 203 Z " /><path fill="rgb(5,5,5)" stroke="rgb(5,5,5)" stroke-width="1" opacity="0.9568627450980393" d="M 114.5 204 L 116 204.5 L 113.5 206 L 114.5 204 Z " /><path fill="rgb(3,3,3)" stroke="rgb(3,3,3)" stroke-width="1" opacity="0.5529411764705883" d="M 51.5 29 L 53.5 32 L 51.5 29 Z " /><path fill="rgb(3,3,3)" stroke="rgb(3,3,3)" stroke-width="1" opacity="0.5529411764705883" d="M 151.5 29 L 152.5 31 L 151.5 29 Z " /><path fill="rgb(3,3,3)" stroke="rgb(3,3,3)" stroke-width="1" opacity="0.5529411764705883" d="M 41.5 31 L 42.5 33 L 41.5 31 Z " /><path fill="rgb(3,3,3)" stroke="rgb(3,3,3)" stroke-width="1" opacity="0.5529411764705883" d="M 71.5 31 L 73.5 34 L 71.5 31 Z " /><path fill="rgb(3,3,3)" stroke="rgb(3,3,3)" stroke-width="1" opacity="0.5529411764705883" d="M 95.5 33 Q 98.3 34.3 96 35.5 L 97 37.5 L 95 36.5 L 96 34.5 L 95.5 33 Z " /><path fill="rgb(3,3,3)" stroke="rgb(3,3,3)" stroke-width="1" opacity="0.5529411764705883" d="M 149.5 33 L 151 37.5 L 149 36.5 L 149.5 33 Z " /><path fill="rgb(3,3,3)" stroke="rgb(3,3,3)" stroke-width="1" opacity="0.5529411764705883" d="M 98.5 34 L 99.5 36 L 98.5 34 Z " /><path fill="rgb(3,3,3)" stroke="rgb(3,3,3)" stroke-width="1" opacity="0.5529411764705883" d="M 39.5 38 L 41.5 40 L 45 39.5 L 40 41.5 L 41 40.5 L 39.5 38 Z " /><path fill="rgb(3,3,3)" stroke="rgb(3,3,3)" stroke-width="1" opacity="0.5529411764705883" d="M 101.5 39 Q 106 41 102.5 43 L 101 41.5 L 101.5 39 Z " /><path fill="rgb(3,3,3)" stroke="rgb(3,3,3)" stroke-width="1" opacity="0.5529411764705883" d="M 156.5 40 L 157.5 42 L 156.5 40 Z " /><path fill="rgb(3,3,3)" stroke="rgb(3,3,3)" stroke-width="1" opacity="0.5529411764705883" d="M 40.5 43 L 39.5 45 L 40.5 43 Z " /><path fill="rgb(3,3,3)" stroke="rgb(3,3,3)" stroke-width="1" opacity="0.5529411764705883" d="M 107.5 43 L 106.5 45 L 107.5 43 Z " /><path fill="rgb(3,3,3)" stroke="rgb(3,3,3)" stroke-width="1" opacity="0.5529411764705883" d="M 53.5 45 L 54.5 47 L 53.5 45 Z " /><path fill="rgb(3,3,3)" stroke="rgb(3,3,3)" stroke-width="1" opacity="0.5529411764705883" d="M 89.5 45 L 90.5 47 L 89.5 45 Z " /><path fill="rgb(3,3,3)" stroke="rgb(3,3,3)" stroke-width="1" opacity="0.5529411764705883" d="M 143.5 45 L 144.5 47 L 143.5 45 Z " /><path fill="rgb(3,3,3)" stroke="rgb(3,3,3)" stroke-width="1" opacity="0.5529411764705883" d="M 58.5 47 L 57.5 49 L 58.5 47 Z " /><path fill="rgb(3,3,3)" stroke="rgb(3,3,3)" stroke-width="1" opacity="0.5529411764705883" d="M 167.5 47 L 166.5 49 L 167.5 47 Z " /><path fill="rgb(3,3,3)" stroke="rgb(3,3,3)" stroke-width="1" opacity="0.5529411764705883" d="M 133.5 49 L 131.5 52 L 133.5 49 Z " /><path fill="rgb(3,3,3)" stroke="rgb(3,3,3)" stroke-width="1" opacity="0.5529411764705883" d="M 169.5 55 L 167.5 58 L 169.5 55 Z " /><path fill="rgb(3,3,3)" stroke="rgb(3,3,3)" stroke-width="1" opacity="0.5529411764705883" d="M 106.5 59 L 107 60.5 L 105 61.5 L 106.5 59 Z " /><path fill="rgb(3,3,3)" stroke="rgb(3,3,3)" stroke-width="1" opacity="0.5529411764705883" d="M 160.5 59 L 161 62 L 159 61.5 L 160.5 59 Z " /><path fill="rgb(3,3,3)" stroke="rgb(3,3,3)" stroke-width="1" opacity="0.5529411764705883" d="M 113.5 60 L 111.5 63 L 113.5 60 Z " /><path fill="rgb(3,3,3)" stroke="rgb(3,3,3)" stroke-width="1" opacity="0.5529411764705883" d="M 122.5 61 L 121.5 63 L 122.5 61 Z " /><path fill="rgb(3,3,3)" stroke="rgb(3,3,3)" stroke-width="1" opacity="0.5529411764705883" d="M 124.5 62 Q 127.5 63.5 124.5 65 L 124.5 62 Z " /><path fill="rgb(3,3,3)" stroke="rgb(3,3,3)" stroke-width="1" opacity="0.5529411764705883" d="M 128.5 62 L 129 64 L 127 63.5 L 128.5 62 Z " /><path fill="rgb(3,3,3)" stroke="rgb(3,3,3)" stroke-width="1" opacity="0.5529411764705883" d="M 182.5 62 L 181.5 64 L 182.5 62 Z " /><path fill="rgb(3,3,3)" stroke="rgb(3,3,3)" stroke-width="1" opacity="0.5529411764705883" d="M 179.5 63 L 178.5 65 L 179.5 63 Z " /><path fill="rgb(3,3,3)" stroke="rgb(3,3,3)" stroke-width="1" opacity="0.5529411764705883" d="M 55.5 74 L 60 74.5 L 55.5 75 L 55.5 74 Z " /><path fill="rgb(3,3,3)" stroke="rgb(3,3,3)" stroke-width="1" opacity="0.5529411764705883" d="M 109.5 74 L 116 74.5 L 109.5 75 L 109.5 74 Z " /><path fill="rgb(3,3,3)" stroke="rgb(3,3,3)" stroke-width="1" opacity="0.5529411764705883" d="M 164.5 74 L 171 74.5 L 164.5 75 L 164.5 74 Z " /><path fill="rgb(3,3,3)" stroke="rgb(3,3,3)" stroke-width="1" opacity="0.5529411764705883" d="M 94.5 106 L 100 106.5 L 94.5 107 L 94.5 106 Z " /><path fill="rgb(3,3,3)" stroke="rgb(3,3,3)" stroke-width="1" opacity="0.5529411764705883" d="M 125.5 106 L 131 106.5 L 125.5 107 L 125.5 106 Z " /><path fill="rgb(3,3,3)" stroke="rgb(3,3,3)" stroke-width="1" opacity="0.5529411764705883" d="M 59.5 131 L 62 131.5 L 59.5 132 L 59.5 131 Z " /><path fill="rgb(3,3,3)" stroke="rgb(3,3,3)" stroke-width="1" opacity="0.5529411764705883" d="M 163.5 131 L 166 131.5 L 163.5 132 L 163.5 131 Z " /><path fill="rgb(3,3,3)" stroke="rgb(3,3,3)" stroke-width="1" opacity="0.5529411764705883" d="M 59.5 139 L 62 139.5 L 59.5 140 L 59.5 139 Z " /><path fill="rgb(3,3,3)" stroke="rgb(3,3,3)" stroke-width="1" opacity="0.5529411764705883" d="M 163.5 139 L 166 139.5 L 163.5 140 L 163.5 139 Z " /><path fill="rgb(3,3,3)" stroke="rgb(3,3,3)" stroke-width="1" opacity="0.5529411764705883" d="M 87.5 146 L 88.5 148 L 87.5 146 Z " /><path fill="rgb(3,3,3)" stroke="rgb(3,3,3)" stroke-width="1" opacity="0.5529411764705883" d="M 106.5 146 L 105.5 148 L 106.5 146 Z " /><path fill="rgb(3,3,3)" stroke="rgb(3,3,3)" stroke-width="1" opacity="0.5529411764705883" d="M 118.5 146 L 119.5 148 L 118.5 146 Z " /><path fill="rgb(3,3,3)" stroke="rgb(3,3,3)" stroke-width="1" opacity="0.5529411764705883" d="M 137.5 146 L 136.5 148 L 137.5 146 Z " /><path fill="rgb(3,3,3)" stroke="rgb(3,3,3)" stroke-width="1" opacity="0.5529411764705883" d="M 85.5 147 L 86.5 149 L 85.5 147 Z " /><path fill="rgb(3,3,3)" stroke="rgb(3,3,3)" stroke-width="1" opacity="0.5529411764705883" d="M 108.5 147 L 107.5 149 L 108.5 147 Z " /><path fill="rgb(3,3,3)" stroke="rgb(3,3,3)" stroke-width="1" opacity="0.5529411764705883" d="M 116.5 147 L 117.5 149 L 116.5 147 Z " /><path fill="rgb(3,3,3)" stroke="rgb(3,3,3)" stroke-width="1" opacity="0.5529411764705883" d="M 139.5 147 L 138.5 149 L 139.5 147 Z " /><path fill="rgb(3,3,3)" stroke="rgb(3,3,3)" stroke-width="1" opacity="0.5529411764705883" d="M 71.5 148 L 70.5 150 L 71.5 148 Z " /><path fill="rgb(3,3,3)" stroke="rgb(3,3,3)" stroke-width="1" opacity="0.5529411764705883" d="M 101.5 148 L 100.5 150 L 99 149.5 L 101.5 148 Z " /><path fill="rgb(3,3,3)" stroke="rgb(3,3,3)" stroke-width="1" opacity="0.5529411764705883" d="M 123.5 148 L 126 149.5 L 124.5 150 L 123.5 148 Z " /><path fill="rgb(3,3,3)" stroke="rgb(3,3,3)" stroke-width="1" opacity="0.5529411764705883" d="M 153.5 148 L 154.5 150 L 153.5 148 Z " /><path fill="rgb(3,3,3)" stroke="rgb(3,3,3)" stroke-width="1" opacity="0.5529411764705883" d="M 74.5 149 L 73.5 151 L 74.5 149 Z " /><path fill="rgb(3,3,3)" stroke="rgb(3,3,3)" stroke-width="1" opacity="0.5529411764705883" d="M 89.5 149 L 90.5 151 L 89.5 149 Z " /><path fill="rgb(3,3,3)" stroke="rgb(3,3,3)" stroke-width="1" opacity="0.5529411764705883" d="M 135.5 149 L 134.5 151 L 135.5 149 Z " /><path fill="rgb(3,3,3)" stroke="rgb(3,3,3)" stroke-width="1" opacity="0.5529411764705883" d="M 150.5 149 L 151.5 151 L 150.5 149 Z " /><path fill="rgb(3,3,3)" stroke="rgb(3,3,3)" stroke-width="1" opacity="0.5529411764705883" d="M 67.5 150 L 66.5 152 L 67.5 150 Z " /><path fill="rgb(3,3,3)" stroke="rgb(3,3,3)" stroke-width="1" opacity="0.5529411764705883" d="M 157.5 150 L 158.5 152 L 157.5 150 Z " /><path fill="rgb(3,3,3)" stroke="rgb(3,3,3)" stroke-width="1" opacity="0.5529411764705883" d="M 69.5 151 L 68.5 153 L 69.5 151 Z " /><path fill="rgb(3,3,3)" stroke="rgb(3,3,3)" stroke-width="1" opacity="0.5529411764705883" d="M 85.5 151 L 86.5 153 L 85.5 151 Z " /><path fill="rgb(3,3,3)" stroke="rgb(3,3,3)" stroke-width="1" opacity="0.5529411764705883" d="M 139.5 151 L 138.5 153 L 139.5 151 Z " /><path fill="rgb(3,3,3)" stroke="rgb(3,3,3)" stroke-width="1" opacity="0.5529411764705883" d="M 155.5 151 L 156.5 153 L 155.5 151 Z " /><path fill="rgb(3,3,3)" stroke="rgb(3,3,3)" stroke-width="1" opacity="0.5529411764705883" d="M 115.5 152 L 116.5 154 L 115.5 152 Z " /><path fill="rgb(3,3,3)" stroke="rgb(3,3,3)" stroke-width="1" opacity="0.5529411764705883" d="M 75.5 154 L 81 154.5 L 75.5 155 L 75.5 154 Z " /><path fill="rgb(3,3,3)" stroke="rgb(3,3,3)" stroke-width="1" opacity="0.5529411764705883" d="M 145.5 154 L 150 154.5 L 145.5 155 L 145.5 154 Z " /><path fill="rgb(3,3,3)" stroke="rgb(3,3,3)" stroke-width="1" opacity="0.5529411764705883" d="M 106.5 160 L 119 160.5 L 106.5 161 L 106.5 160 Z " /><path fill="rgb(3,3,3)" stroke="rgb(3,3,3)" stroke-width="1" opacity="0.5529411764705883" d="M 55.5 168 L 56.5 170 L 55.5 168 Z " /><path fill="rgb(3,3,3)" stroke="rgb(3,3,3)" stroke-width="1" opacity="0.5529411764705883" d="M 104.5 180 L 110 180.5 L 104.5 181 L 104.5 180 Z " /><path fill="rgb(3,3,3)" stroke="rgb(3,3,3)" stroke-width="1" opacity="0.5529411764705883" d="M 119.5 180 L 122 180.5 L 119.5 181 L 119.5 180 Z " /><path fill="rgb(2,2,2)" stroke="rgb(2,2,2)" stroke-width="1" opacity="0.28627450980392155" d="M 41.5 15 L 196.5 15 L 198 16.5 L 197.5 105 L 197 16 L 41.5 16 L 41.5 15 Z " /><path fill="rgb(2,2,2)" stroke="rgb(2,2,2)" stroke-width="1" opacity="0.28627450980392155" d="M 40.5 17 L 194.5 17 L 196 18.5 L 195.5 67 L 195 18 L 40.5 18 L 40.5 17 Z " /><path fill="rgb(2,2,2)" stroke="rgb(2,2,2)" stroke-width="1" opacity="0.28627450980392155" d="M 29.5 24 L 30 66.5 L 29 66.5 L 29.5 24 Z " /><path fill="rgb(2,2,2)" stroke="rgb(2,2,2)" stroke-width="1" opacity="0.28627450980392155" d="M 27.5 25 L 28 104.5 L 27 104.5 L 27.5 25 Z " /><path fill="rgb(2,2,2)" stroke="rgb(2,2,2)" stroke-width="1" opacity="0.28627450980392155" d="M 113.5 27 L 114.5 29 Q 111.7 29.7 113.5 27 Z " /><path fill="rgb(2,2,2)" stroke="rgb(2,2,2)" stroke-width="1" opacity="0.28627450980392155" d="M 167.5 27 L 168.5 29 L 167.5 27 Z " /><path fill="rgb(2,2,2)" stroke="rgb(2,2,2)" stroke-width="1" opacity="0.28627450980392155" d="M 65.5 28 L 69 30.5 L 66.5 29 L 65.5 28 Z " /><path fill="rgb(2,2,2)" stroke="rgb(2,2,2)" stroke-width="1" opacity="0.28627450980392155" d="M 119.5 28 Q 122.8 26.9 122 29.5 L 120.5 29 L 119.5 28 Z " /><path fill="rgb(2,2,2)" stroke="rgb(2,2,2)" stroke-width="1" opacity="0.28627450980392155" d="M 173.5 28 L 176 28 Q 174.9 30.7 177.5 30 L 177.5 31 Q 172.8 30.2 173.5 28 Z " /><path fill="rgb(2,2,2)" stroke="rgb(2,2,2)" stroke-width="1" opacity="0.28627450980392155" d="M 55.5 29 L 54.5 31 L 55.5 29 Z " /><path fill="rgb(2,2,2)" stroke="rgb(2,2,2)" stroke-width="1" opacity="0.28627450980392155" d="M 105.5 29 L 106.5 31 L 105.5 29 Z " /><path fill="rgb(2,2,2)" stroke="rgb(2,2,2)" stroke-width="1" opacity="0.28627450980392155" d="M 184.5 29 L 186.5 32 L 184.5 29 Z " /><path fill="rgb(2,2,2)" stroke="rgb(2,2,2)" stroke-width="1" opacity="0.28627450980392155" d="M 44.5 30 L 43.5 32 L 44.5 30 Z " /><path fill="rgb(2,2,2)" stroke="rgb(2,2,2)" stroke-width="1" opacity="0.28627450980392155" d="M 99.5 33 L 100.5 35 L 99.5 33 Z " /><path fill="rgb(2,2,2)" stroke="rgb(2,2,2)" stroke-width="1" opacity="0.28627450980392155" d="M 153.5 33 L 154.5 35 L 152 34.5 L 153.5 33 Z " /><path fill="rgb(2,2,2)" stroke="rgb(2,2,2)" stroke-width="1" opacity="0.28627450980392155" d="M 40.5 34 L 41 36.5 L 40 36.5 L 40.5 34 Z " /><path fill="rgb(2,2,2)" stroke="rgb(2,2,2)" stroke-width="1" opacity="0.28627450980392155" d="M 44.5 37 L 43.5 39 L 44.5 37 Z " /><path fill="rgb(2,2,2)" stroke="rgb(2,2,2)" stroke-width="1" opacity="0.28627450980392155" d="M 94.5 37 L 93.5 39 L 94.5 37 Z " /><path fill="rgb(2,2,2)" stroke="rgb(2,2,2)" stroke-width="1" opacity="0.28627450980392155" d="M 99.5 39 L 100.5 41 L 99.5 39 Z " /><path fill="rgb(2,2,2)" stroke="rgb(2,2,2)" stroke-width="1" opacity="0.28627450980392155" d="M 153.5 39 L 157.5 44 Q 154.8 38.6 152 40.5 L 153.5 39 Z " /><path fill="rgb(2,2,2)" stroke="rgb(2,2,2)" stroke-width="1" opacity="0.28627450980392155" d="M 94.5 40 L 93.5 42 L 94.5 40 Z " /><path fill="rgb(2,2,2)" stroke="rgb(2,2,2)" stroke-width="1" opacity="0.28627450980392155" d="M 42.5 41 L 41.5 43 L 42.5 41 Z " /><path fill="rgb(2,2,2)" stroke="rgb(2,2,2)" stroke-width="1" opacity="0.28627450980392155" d="M 38 42 L 40 42.5 L 38 43.5 L 38 42 Z " /><path fill="rgb(2,2,2)" stroke="rgb(2,2,2)" stroke-width="1" opacity="0.28627450980392155" d="M 53.5 43 L 55.5 46 L 53.5 43 Z " /><path fill="rgb(2,2,2)" stroke="rgb(2,2,2)" stroke-width="1" opacity="0.28627450980392155" d="M 146.5 43 L 147.5 45 L 149 44.5 L 147.5 46 L 145 45.5 L 146.5 43 Z " /><path fill="rgb(2,2,2)" stroke="rgb(2,2,2)" stroke-width="1" opacity="0.28627450980392155" d="M 182.5 43 L 180.5 46 L 182.5 43 Z " /><path fill="rgb(2,2,2)" stroke="rgb(2,2,2)" stroke-width="1" opacity="0.28627450980392155" d="M 127.5 44 L 126.5 46 L 127.5 44 Z " /><path fill="rgb(2,2,2)" stroke="rgb(2,2,2)" stroke-width="1" opacity="0.28627450980392155" d="M 114.5 47 L 116 50.5 L 115 50.5 L 114.5 47 Z " /><path fill="rgb(2,2,2)" stroke="rgb(2,2,2)" stroke-width="1" opacity="0.28627450980392155" d="M 168.5 47 Q 170.8 46.3 170 48.5 L 168.5 47 Z " /><path fill="rgb(2,2,2)" stroke="rgb(2,2,2)" stroke-width="1" opacity="0.28627450980392155" d="M 58.5 57 L 57.5 59 L 58.5 57 Z " /><path fill="rgb(2,2,2)" stroke="rgb(2,2,2)" stroke-width="1" opacity="0.28627450980392155" d="M 52.5 59 L 51.5 61 L 52.5 59 Z " /><path fill="rgb(2,2,2)" stroke="rgb(2,2,2)" stroke-width="1" opacity="0.28627450980392155" d="M 176.5 61 L 177.5 63 L 179 62.5 Q 177.8 65.3 176.5 63 L 175 62.5 L 176.5 61 Z " /><path fill="rgb(2,2,2)" stroke="rgb(2,2,2)" stroke-width="1" opacity="0.28627450980392155" d="M 122.5 62 L 123.5 64 L 122.5 62 Z " /><path fill="rgb(2,2,2)" stroke="rgb(2,2,2)" stroke-width="1" opacity="0.28627450980392155" d="M 53.5 63 Q 56.5 64.5 53.5 66 L 53.5 63 Z " /><path fill="rgb(2,2,2)" stroke="rgb(2,2,2)" stroke-width="1" opacity="0.28627450980392155" d="M 68.5 64 L 69.5 66 L 68.5 64 Z " /><path fill="rgb(2,2,2)" stroke="rgb(2,2,2)" stroke-width="1" opacity="0.28627450980392155" d="M 69 85 L 71 85.5 L 69 86.5 L 69 85 Z " /><path fill="rgb(2,2,2)" stroke="rgb(2,2,2)" stroke-width="1" opacity="0.28627450980392155" d="M 82.5 85 L 90 85.5 L 82.5 86 L 82.5 85 Z " /><path fill="rgb(2,2,2)" stroke="rgb(2,2,2)" stroke-width="1" opacity="0.28627450980392155" d="M 134.5 85 L 143 85.5 L 135.5 87 L 134.5 85 Z " /><path fill="rgb(2,2,2)" stroke="rgb(2,2,2)" stroke-width="1" opacity="0.28627450980392155" d="M 148.5 85 L 155.5 85 L 156 86.5 L 154.5 86 L 148.5 86 L 148.5 85 Z " /><path fill="rgb(2,2,2)" stroke="rgb(2,2,2)" stroke-width="1" opacity="0.28627450980392155" d="M 85.5 96 L 85.5 99 Q 82.5 97.5 85.5 96 Z " /><path fill="rgb(2,2,2)" stroke="rgb(2,2,2)" stroke-width="1" opacity="0.28627450980392155" d="M 139.5 96 L 140.5 98 L 139.5 96 Z " /><path fill="rgb(2,2,2)" stroke="rgb(2,2,2)" stroke-width="1" opacity="0.28627450980392155" d="M 111.5 112 L 112 148.5 L 111 148.5 L 111.5 112 Z " /><path fill="rgb(2,2,2)" stroke="rgb(2,2,2)" stroke-width="1" opacity="0.28627450980392155" d="M 113.5 112 L 114 148.5 L 113 148.5 L 113.5 112 Z " /><path fill="rgb(2,2,2)" stroke="rgb(2,2,2)" stroke-width="1" opacity="0.28627450980392155" d="M 56.5 113 L 58 113.5 L 55.5 115 L 56.5 113 Z " /><path fill="rgb(2,2,2)" stroke="rgb(2,2,2)" stroke-width="1" opacity="0.28627450980392155" d="M 63.5 113 L 65 113.5 L 65 149.5 L 64 149.5 L 64 114.5 L 63.5 113 Z " /><path fill="rgb(2,2,2)" stroke="rgb(2,2,2)" stroke-width="1" opacity="0.28627450980392155" d="M 160 113 L 162 113.5 L 161 114.5 L 160.5 150 L 160 113 Z " /><path fill="rgb(2,2,2)" stroke="rgb(2,2,2)" stroke-width="1" opacity="0.28627450980392155" d="M 167.5 113 L 170 114.5 L 168.5 114 L 167.5 113 Z " /><path fill="rgb(2,2,2)" stroke="rgb(2,2,2)" stroke-width="1" opacity="0.28627450980392155" d="M 59.5 114 L 62 114.5 L 59.5 115 L 59.5 114 Z " /><path fill="rgb(2,2,2)" stroke="rgb(2,2,2)" stroke-width="1" opacity="0.28627450980392155" d="M 163.5 114 L 166 114.5 L 163.5 115 L 163.5 114 Z " /><path fill="rgb(2,2,2)" stroke="rgb(2,2,2)" stroke-width="1" opacity="0.28627450980392155" d="M 62.5 116 L 63 119.5 L 62 119.5 L 62.5 116 Z " /><path fill="rgb(2,2,2)" stroke="rgb(2,2,2)" stroke-width="1" opacity="0.28627450980392155" d="M 162.5 116 L 163 119.5 L 162 119.5 L 162.5 116 Z " /><path fill="rgb(2,2,2)" stroke="rgb(2,2,2)" stroke-width="1" opacity="0.28627450980392155" d="M 62.5 122 L 63 125.5 L 62 125.5 L 62.5 122 Z " /><path fill="rgb(2,2,2)" stroke="rgb(2,2,2)" stroke-width="1" opacity="0.28627450980392155" d="M 162.5 122 L 163 125.5 L 162 125.5 L 162.5 122 Z " /><path fill="rgb(2,2,2)" stroke="rgb(2,2,2)" stroke-width="1" opacity="0.28627450980392155" d="M 62.5 128 L 63 131.5 L 62 131.5 L 62.5 128 Z " /><path fill="rgb(2,2,2)" stroke="rgb(2,2,2)" stroke-width="1" opacity="0.28627450980392155" d="M 162.5 128 L 163 131.5 L 162 131.5 L 162.5 128 Z " /><path fill="rgb(2,2,2)" stroke="rgb(2,2,2)" stroke-width="1" opacity="0.28627450980392155" d="M 55.5 133 L 58 134.5 L 56.5 135 L 55.5 133 Z " /><path fill="rgb(2,2,2)" stroke="rgb(2,2,2)" stroke-width="1" opacity="0.28627450980392155" d="M 59.5 133 L 63 134.5 L 61.5 138 L 59 137.5 L 62 137 Q 63.7 132.9 59.5 134 L 59.5 133 Z " /><path fill="rgb(2,2,2)" stroke="rgb(2,2,2)" stroke-width="1" opacity="0.28627450980392155" d="M 163.5 133 L 166 133.5 L 163 134 Q 161.3 138.1 165.5 137 L 165.5 138 L 162 136.5 L 163.5 133 Z " /><path fill="rgb(2,2,2)" stroke="rgb(2,2,2)" stroke-width="1" opacity="0.28627450980392155" d="M 169.5 133 L 168.5 135 L 167 134.5 L 169.5 133 Z " /><path fill="rgb(2,2,2)" stroke="rgb(2,2,2)" stroke-width="1" opacity="0.28627450980392155" d="M 56.5 136 L 58 136.5 L 55.5 138 L 56.5 136 Z " /><path fill="rgb(2,2,2)" stroke="rgb(2,2,2)" stroke-width="1" opacity="0.28627450980392155" d="M 62.5 139 L 63 142.5 L 61 143.5 L 62.5 139 Z " /><path fill="rgb(2,2,2)" stroke="rgb(2,2,2)" stroke-width="1" opacity="0.28627450980392155" d="M 162.5 139 L 163 142.5 L 162 142.5 L 162.5 139 Z " /><path fill="rgb(2,2,2)" stroke="rgb(2,2,2)" stroke-width="1" opacity="0.28627450980392155" d="M 62.5 145 L 63 148.5 L 62 148.5 L 62.5 145 Z " /><path fill="rgb(2,2,2)" stroke="rgb(2,2,2)" stroke-width="1" opacity="0.28627450980392155" d="M 162.5 145 L 163 148.5 L 162 148.5 L 162.5 145 Z " /><path fill="rgb(2,2,2)" stroke="rgb(2,2,2)" stroke-width="1" opacity="0.28627450980392155" d="M 75.5 149 L 79 149.5 L 75.5 150 L 75.5 149 Z " /><path fill="rgb(2,2,2)" stroke="rgb(2,2,2)" stroke-width="1" opacity="0.28627450980392155" d="M 95.5 149 L 99 149.5 L 95.5 150 L 95.5 149 Z " /><path fill="rgb(2,2,2)" stroke="rgb(2,2,2)" stroke-width="1" opacity="0.28627450980392155" d="M 126.5 149 L 130 149.5 L 126.5 150 L 126.5 149 Z " /><path fill="rgb(2,2,2)" stroke="rgb(2,2,2)" stroke-width="1" opacity="0.28627450980392155" d="M 146.5 149 L 150 149.5 L 146.5 150 L 146.5 149 Z " /><path fill="rgb(2,2,2)" stroke="rgb(2,2,2)" stroke-width="1" opacity="0.28627450980392155" d="M 108.5 151 Q 110.3 154.1 112 152.5 Q 112.8 154.8 110.5 154 L 108.5 151 Z " /><path fill="rgb(2,2,2)" stroke="rgb(2,2,2)" stroke-width="1" opacity="0.28627450980392155" d="M 113.5 152 L 114.5 154 Q 111.7 154.7 113.5 152 Z " /><path fill="rgb(2,2,2)" stroke="rgb(2,2,2)" stroke-width="1" opacity="0.28627450980392155" d="M 106.5 154 L 104.5 157 L 106.5 154 Z " /><path fill="rgb(2,2,2)" stroke="rgb(2,2,2)" stroke-width="1" opacity="0.28627450980392155" d="M 118.5 154 L 120.5 157 L 118.5 154 Z " /><path fill="rgb(2,2,2)" stroke="rgb(2,2,2)" stroke-width="1" opacity="0.28627450980392155" d="M 75.5 156 L 81 156.5 L 75.5 157 L 75.5 156 Z " /><path fill="rgb(2,2,2)" stroke="rgb(2,2,2)" stroke-width="1" opacity="0.28627450980392155" d="M 144.5 156 L 150 156.5 L 144.5 157 L 144.5 156 Z " /><path fill="rgb(2,2,2)" stroke="rgb(2,2,2)" stroke-width="1" opacity="0.28627450980392155" d="M 108.5 158 L 117 158.5 L 108.5 159 L 108.5 158 Z " /><path fill="rgb(2,2,2)" stroke="rgb(2,2,2)" stroke-width="1" opacity="0.28627450980392155" d="M 50.5 162 L 51.5 164 L 50.5 162 Z " /><path fill="rgb(2,2,2)" stroke="rgb(2,2,2)" stroke-width="1" opacity="0.28627450980392155" d="M 171.5 166 L 170.5 168 L 171.5 166 Z " /><path fill="rgb(2,2,2)" stroke="rgb(2,2,2)" stroke-width="1" opacity="0.28627450980392155" d="M 165.5 173 L 157.5 182 L 165.5 173 Z " /><path fill="rgb(2,2,2)" stroke="rgb(2,2,2)" stroke-width="1" opacity="0.28627450980392155" d="M 60.5 174 L 66.5 181 L 60.5 174 Z " /><path fill="rgb(2,2,2)" stroke="rgb(2,2,2)" stroke-width="1" opacity="0.28627450980392155" d="M 102 180 L 104 180.5 L 102 181.5 L 102 180 Z " /><path fill="rgb(2,2,2)" stroke="rgb(2,2,2)" stroke-width="1" opacity="0.28627450980392155" d="M 116.5 180 L 119 180.5 L 116.5 181 L 116.5 180 Z " /><path fill="rgb(2,2,2)" stroke="rgb(2,2,2)" stroke-width="1" opacity="0.28627450980392155" d="M 151.5 186 L 150.5 188 L 151.5 186 Z " /><path fill="rgb(2,2,2)" stroke="rgb(2,2,2)" stroke-width="1" opacity="0.28627450980392155" d="M 106.5 191 Q 109.5 192.5 106.5 194 L 106.5 191 Z " /><path fill="rgb(256,256,256)" stroke="rgb(256,256,256)" stroke-width="1" opacity="0.8941176470588236" d="M 62.5 25 L 65 25.5 L 62.5 26 L 62.5 25 Z " /><path fill="rgb(256,256,256)" stroke="rgb(256,256,256)" stroke-width="1" opacity="0.8941176470588236" d="M 116.5 25 L 119 25.5 L 116.5 26 L 116.5 25 Z " /><path fill="rgb(256,256,256)" stroke="rgb(256,256,256)" stroke-width="1" opacity="0.8941176470588236" d="M 170.5 25 L 173 25.5 L 170.5 26 L 170.5 25 Z " /><path fill="rgb(256,256,256)" stroke="rgb(256,256,256)" stroke-width="1" opacity="0.8941176470588236" d="M 109.5 29 L 108.5 31 L 109.5 29 Z " /><path fill="rgb(256,256,256)" stroke="rgb(256,256,256)" stroke-width="1" opacity="0.8941176470588236" d="M 76.5 30 L 77.5 32 L 76.5 30 Z " /><path fill="rgb(256,256,256)" stroke="rgb(256,256,256)" stroke-width="1" opacity="0.8941176470588236" d="M 92.5 42 L 93.5 44 L 92.5 42 Z " /><path fill="rgb(256,256,256)" stroke="rgb(256,256,256)" stroke-width="1" opacity="0.8941176470588236" d="M 73.5 44 L 72.5 46 L 73.5 44 Z " /><path fill="rgb(256,256,256)" stroke="rgb(256,256,256)" stroke-width="1" opacity="0.8941176470588236" d="M 108.5 44 L 109.5 46 L 108.5 44 Z " /><path fill="rgb(256,256,256)" stroke="rgb(256,256,256)" stroke-width="1" opacity="0.8941176470588236" d="M 33.5 49 L 35 51.5 L 33 50.5 L 33.5 49 Z " /><path fill="rgb(256,256,256)" stroke="rgb(256,256,256)" stroke-width="1" opacity="0.8941176470588236" d="M 166.5 58 L 165.5 60 L 166.5 58 Z " /><path fill="rgb(256,256,256)" stroke="rgb(256,256,256)" stroke-width="1" opacity="0.8941176470588236" d="M 167.5 60 L 165.5 63 L 167.5 60 Z " /><path fill="rgb(256,256,256)" stroke="rgb(256,256,256)" stroke-width="1" opacity="0.8941176470588236" d="M 109.5 63 L 108.5 65 L 107 64.5 L 109.5 63 Z " /><path fill="rgb(256,256,256)" stroke="rgb(256,256,256)" stroke-width="1" opacity="0.8941176470588236" d="M 68 111 L 70 111.5 L 69 112.5 L 69 120.5 Q 71.5 122 70 127.5 L 69 128.5 L 68.5 148 L 68 111 Z " /><path fill="rgb(256,256,256)" stroke="rgb(256,256,256)" stroke-width="1" opacity="0.8941176470588236" d="M 155.5 111 L 157 111.5 L 157 147.5 L 156 147.5 L 155 145.5 L 155 143.5 L 155 115.5 L 156 112.5 L 155.5 111 Z " /><path fill="rgb(256,256,256)" stroke="rgb(256,256,256)" stroke-width="1" opacity="0.8941176470588236" d="M 163.5 116 L 166 116.5 L 163.5 117 L 163.5 116 Z " /><path fill="rgb(256,256,256)" stroke="rgb(256,256,256)" stroke-width="1" opacity="0.8941176470588236" d="M 95.5 144 Q 99.3 143 98 146 L 95.5 144 Z " /><path fill="rgb(256,256,256)" stroke="rgb(256,256,256)" stroke-width="1" opacity="0.8941176470588236" d="M 127 144 Q 130 143 129 146 Q 126 147 127 144 Z " /><path fill="rgb(256,256,256)" stroke="rgb(256,256,256)" stroke-width="1" opacity="0.8941176470588236" d="M 115.5 154 L 114.5 156 L 115.5 154 Z " /><path fill="rgb(256,256,256)" stroke="rgb(256,256,256)" stroke-width="1" opacity="0.8941176470588236" d="M 168.5 169 L 167.5 171 L 168.5 169 Z " /><path fill="rgb(256,256,256)" stroke="rgb(256,256,256)" stroke-width="1" opacity="0.8941176470588236" d="M 70.5 183 L 71.5 185 L 70.5 183 Z " /><path fill="rgb(256,256,256)" stroke="rgb(256,256,256)" stroke-width="1" opacity="0.8941176470588236" d="M 154.5 183 L 153.5 185 L 154.5 183 Z " /><path fill="rgb(256,256,256)" stroke="rgb(256,256,256)" stroke-width="1" opacity="1" d="M 40.5 16 L 195 16.5 L 40.5 17 L 40.5 16 Z " /><path fill="rgb(256,256,256)" stroke="rgb(256,256,256)" stroke-width="1" opacity="1" d="M 196.5 16 L 197 18.5 L 196 18.5 L 196.5 16 Z " /><path fill="rgb(256,256,256)" stroke="rgb(256,256,256)" stroke-width="1" opacity="1" d="M 196.5 20 L 197 105 L 195 105.5 L 197 106 L 195 118.5 L 190 134 L 188 134.5 L 189 136.5 Q 176.9 164.4 155.5 183 L 150 186 L 150 188 Q 146.3 186.5 147 189.5 Q 143.6 194.5 137 195 Q 138.1 197.7 135.5 197 Q 133.8 200.1 132 198.5 Q 132.8 200.8 130.5 200 L 120.5 206 L 117.5 206 L 111.5 209 L 109 208 L 108.5 206 L 106.5 206 L 91 198.5 L 91.5 197 L 88.5 197 L 78 189.5 Q 78.8 186.9 75.5 188 L 60 173.5 L 58 170.5 Q 47.5 160.5 41 146.5 L 41.5 145 Q 39.3 145.8 40 143.5 L 36 135.5 L 36.5 134 Q 34.3 134.8 35 132.5 L 33 128.5 L 29 113.5 L 29 111.5 L 28 107.5 L 28 23.5 L 29 23.5 L 29 66.5 L 32.5 67 L 40.5 69 L 53.5 75 L 60.5 75 L 69.5 72 L 71 72.5 Q 70.3 70.3 72.5 71 L 77.5 68 L 87.5 67 Q 97.9 68.6 104.5 74 L 116.5 75 L 127.5 70 Q 129 72.5 130.5 69 L 141.5 67 L 144.5 69 L 146.5 68 L 157.5 74 L 159.5 74 L 170.5 75 L 175.5 74 L 187.5 68 L 196 67 L 196.5 20 Z M 79 77 L 79 79 L 77 85 L 74 84 L 68 86 L 75 92 Q 72 93 73 98 L 73 99 L 80 94 L 87 99 L 87 97 Q 88 94 85 95 L 85 93 L 85 91 Q 87 92 86 89 L 90 87 Q 92 88 91 86 Q 90 83 89 85 Q 81 87 82 83 L 84 83 L 81 82 L 80 79 Q 81 76 79 77 Z M 145 77 L 145 79 L 142 85 L 134 86 L 141 92 L 139 96 Q 140 99 138 98 L 138 99 L 140 99 L 145 95 L 149 97 Q 151 96 150 99 L 153 99 L 150 92 L 157 86 L 148 85 L 146 79 Q 147 76 145 77 Z M 99 105 L 79 111 L 71 110 L 69 110 Q 70 112 68 111 L 66 113 L 66 144 L 65 113 L 63 114 L 59 113 L 55 115 L 57 118 L 59 117 L 61 118 L 62 118 L 61 120 L 59 119 Q 53 117 55 123 L 60 122 Q 63 121 62 124 L 62 126 L 60 126 Q 58 122 57 125 L 55 125 L 55 129 L 57 130 L 55 134 Q 59 136 55 138 L 57 141 L 59 140 Q 63 138 62 143 L 60 143 L 55 142 L 55 146 L 57 146 Q 58 149 60 145 Q 64 144 62 149 L 56 147 L 55 152 L 60 151 L 66 154 Q 68 153 67 156 L 69 155 L 72 156 L 73 158 L 75 157 L 79 157 L 83 158 L 83 156 L 94 152 L 96 152 Q 103 151 106 155 Q 103 156 104 160 L 107 161 L 119 161 L 121 160 L 122 157 L 119 155 L 124 152 L 133 152 L 140 156 L 146 157 L 148 157 L 150 158 L 164 151 L 170 152 Q 171 148 169 147 L 163 149 Q 161 144 166 145 Q 167 148 169 146 L 170 146 L 170 142 L 166 143 Q 161 144 163 140 L 168 141 L 172 139 L 169 136 L 166 137 Q 161 138 163 134 L 169 135 L 171 132 L 169 130 L 164 131 L 164 128 L 170 129 L 171 127 L 169 125 Q 167 122 166 126 Q 161 127 163 122 L 167 123 Q 172 125 170 119 L 166 120 Q 161 121 163 117 L 168 118 L 171 117 L 169 113 L 166 114 L 160 113 L 160 145 L 159 113 L 154 110 Q 152 108 151 111 L 143 110 Q 141 106 140 109 L 133 107 L 129 105 L 126 106 L 124 106 L 122 107 L 120 107 L 115 110 L 113 112 L 113 148 L 112 112 L 99 105 Z M 113 172 L 110 178 L 110 180 L 107 180 L 105 180 L 103 179 L 101 183 L 103 182 L 106 184 L 107 187 L 107 189 L 106 193 L 106 194 L 112 190 L 118 194 Q 117 196 120 195 L 118 188 L 118 186 Q 120 187 119 184 L 123 182 Q 125 183 124 180 L 119 179 L 116 180 L 116 179 L 113 172 Z " /><path fill="rgb(256,256,256)" stroke="rgb(256,256,256)" stroke-width="1" opacity="1" d="M 58.5 26 L 57.5 28 L 53.5 31 L 52.5 29 L 58.5 26 Z " /><path fill="rgb(256,256,256)" stroke="rgb(256,256,256)" stroke-width="1" opacity="1" d="M 60 26 L 63 26.5 L 60.5 28 L 60 26 Z " /><path fill="rgb(256,256,256)" stroke="rgb(256,256,256)" stroke-width="1" opacity="1" d="M 64.5 26 L 66.5 26 Q 75.5 27 79 33.5 Q 81.8 36.2 81 42.5 L 81 44.5 L 76.5 52 L 74.5 53 L 73 52.5 Q 72.4 57.1 75 58.5 Q 71.5 60 74 61.5 L 73.5 64 L 72.5 61 L 69.5 65 L 69 63.5 L 72 59.5 L 72 56.5 L 70.5 53 L 66 54 L 65 58 L 57 61 Q 58.1 63.7 55.5 63 L 53 64.5 L 53.5 63 L 48 62.5 L 53 61.5 L 52.5 60 L 56.5 61 L 61 54.5 L 60 51.5 L 61 51.5 L 62.5 55 L 64 52 L 68 49.5 L 69.5 47 L 74 44.5 L 76 38.5 L 71.5 31 L 69 29.5 L 69 28 L 64 28 L 64.5 26 Z " /><path fill="rgb(256,256,256)" stroke="rgb(256,256,256)" stroke-width="1" opacity="1" d="M 112.5 26 L 116 26.5 L 112.5 27 L 107.5 31 Q 107 27.5 102.5 28 L 97 31.5 L 96.5 33 L 96 31.5 Q 98.1 27.1 104.5 27 L 108.5 29 L 112.5 26 Z " /><path fill="rgb(256,256,256)" stroke="rgb(256,256,256)" stroke-width="1" opacity="1" d="M 117.5 26 L 126.5 27 L 133 32.5 L 136 41.5 L 135 44.5 Q 134.6 50.1 130.5 52 L 129 51.5 L 128 55.5 L 129 62 Q 124.7 61.2 123.5 65 L 124.5 62 L 123 61.5 L 127 59.5 L 124.5 54 L 121.5 55 L 120 54.5 L 118.5 58 L 114.5 59 L 108.5 64 L 103 62.5 L 107 62 Q 105.7 58.7 110.5 60 L 116 55.5 L 115 53.5 L 117.5 53 L 120.5 51 L 122 51.5 Q 121.5 47.5 124.5 47 Q 127.8 48.1 127 45.5 L 129 42 L 131 41.5 L 130 38.5 Q 132.5 37 129 35.5 L 124.5 30 L 121.5 28 L 118.5 27 L 117.5 26 Z " /><path fill="rgb(256,256,256)" stroke="rgb(256,256,256)" stroke-width="1" opacity="1" d="M 166.5 26 L 177.5 26 L 187 32.5 L 190 39.5 L 190 44.5 L 184.5 52 Q 180.3 50.7 182 55.5 L 183 62 L 178 64.5 L 177.5 66 L 177 64.5 L 178.5 62 L 177 61.5 L 181 60.5 L 180 59.5 L 181.5 57 Q 178.5 57.7 180 54 L 176.5 54 L 174 55 Q 175.7 59.1 171.5 58 L 161.5 66 L 163 63.5 L 162.5 62 L 159.5 63 L 159.5 62 L 162 61.5 L 161.5 60 L 165.5 60 L 170 57 L 168 51.5 L 170 52.5 L 170.5 54 L 173 53.5 L 174.5 51 Q 176.8 51.8 176 49.5 L 177 47 Q 181.7 47.8 183 43.5 L 184 36.5 L 183.5 34 L 181 32.5 Q 181.8 30.3 179.5 31 L 177 30 Q 178.3 26.7 173.5 28 L 170.5 27 L 168.5 27 L 166.5 27 L 162.5 31 L 162 29.5 L 166.5 26 Z " /><path fill="rgb(256,256,256)" stroke="rgb(256,256,256)" stroke-width="1" opacity="1" d="M 47.5 27 L 51 28.5 L 49.5 28 Q 46.5 28.5 47.5 27 Z " /><path fill="rgb(256,256,256)" stroke="rgb(256,256,256)" stroke-width="1" opacity="1" d="M 157.5 27 L 161 29.5 L 158.5 28 L 157.5 27 Z " /><path fill="rgb(256,256,256)" stroke="rgb(256,256,256)" stroke-width="1" opacity="1" d="M 45.5 28 L 42 32.5 L 42 37.5 L 37.5 43 L 38 41.5 L 43 29 L 45.5 28 Z " /><path fill="rgb(256,256,256)" stroke="rgb(256,256,256)" stroke-width="1" opacity="1" d="M 153.5 28 L 156 28.5 L 151 31.5 L 150.5 34 L 150 31.5 L 153.5 28 Z " /><path fill="rgb(256,256,256)" stroke="rgb(256,256,256)" stroke-width="1" opacity="1" d="M 96.5 36 L 95 38.5 L 91 45.5 L 94 43.5 Q 93.3 41.3 95.5 42 L 91.5 47 L 89 46.5 L 96.5 36 Z " /><path fill="rgb(256,256,256)" stroke="rgb(256,256,256)" stroke-width="1" opacity="1" d="M 45.5 37 L 50.5 43 L 52 43.5 L 50.5 44 L 47 41.5 L 45.5 39 L 41.5 42 L 45.5 37 Z " /><path fill="rgb(256,256,256)" stroke="rgb(256,256,256)" stroke-width="1" opacity="1" d="M 100.5 38 L 104.5 43 L 106 43.5 L 104.5 44 L 100 39.5 L 100.5 38 Z " /><path fill="rgb(256,256,256)" stroke="rgb(256,256,256)" stroke-width="1" opacity="1" d="M 148 38 L 150 38.5 L 145 45.5 L 149 42.5 L 151.5 39 L 154.5 38 L 154.5 39 L 146 46.5 L 142.5 52 L 142 48.5 L 148 38 Z " /><path fill="rgb(256,256,256)" stroke="rgb(256,256,256)" stroke-width="1" opacity="1" d="M 97.5 39 L 99 39.5 L 96.5 41 L 97.5 39 Z " /><path fill="rgb(256,256,256)" stroke="rgb(256,256,256)" stroke-width="1" opacity="1" d="M 155.5 40 L 157.5 43 L 155.5 40 Z " /><path fill="rgb(256,256,256)" stroke="rgb(256,256,256)" stroke-width="1" opacity="1" d="M 39.5 43 L 38.5 45 L 39.5 43 Z " /><path fill="rgb(256,256,256)" stroke="rgb(256,256,256)" stroke-width="1" opacity="1" d="M 53.5 44 L 59 48.5 L 57.5 48 L 53.5 44 Z " /><path fill="rgb(256,256,256)" stroke="rgb(256,256,256)" stroke-width="1" opacity="1" d="M 162.5 44 L 169 48 L 168.5 50 L 162 46 L 162.5 44 Z " /><path fill="rgb(256,256,256)" stroke="rgb(256,256,256)" stroke-width="1" opacity="1" d="M 37.5 46 L 36.5 48 L 37.5 46 Z " /><path fill="rgb(256,256,256)" stroke="rgb(256,256,256)" stroke-width="1" opacity="1" d="M 109.5 46 L 115 48 L 114.5 52 L 112.5 48 Q 108.8 47.7 109.5 46 Z " /><path fill="rgb(256,256,256)" stroke="rgb(256,256,256)" stroke-width="1" opacity="1" d="M 34.5 47 L 36 49.5 L 34 50.5 L 34.5 47 Z " /><path fill="rgb(256,256,256)" stroke="rgb(256,256,256)" stroke-width="1" opacity="1" d="M 88 48 L 91 48.5 L 88.5 52 L 88 48 Z " /><path fill="rgb(256,256,256)" stroke="rgb(256,256,256)" stroke-width="1" opacity="1" d="M 59.5 128 Q 63.3 126.8 62 130.5 L 59.5 131 L 58 129.5 L 59.5 128 Z " /><path fill="rgb(256,256,256)" stroke="rgb(256,256,256)" stroke-width="1" opacity="1" d="M 60.5 134 Q 63.5 133.2 62 137 L 58 135.5 L 60.5 134 Z " /><path fill="rgb(256,256,256)" stroke="rgb(256,256,256)" stroke-width="1" opacity="1" d="M 65.5 145 L 66 147.5 L 65 147.5 L 65.5 145 Z " /><path fill="rgb(256,256,256)" stroke="rgb(256,256,256)" stroke-width="1" opacity="1" d="M 91.5 145 L 96 145.5 L 81.5 150 L 81.5 149 L 91.5 145 Z " /><path fill="rgb(256,256,256)" stroke="rgb(256,256,256)" stroke-width="1" opacity="1" d="M 98.5 145 Q 103.3 144.3 105 146.5 L 103.5 147 L 98.5 146 L 98.5 145 Z " /><path fill="rgb(256,256,256)" stroke="rgb(256,256,256)" stroke-width="1" opacity="1" d="M 122.5 145 L 127 145.5 L 122.5 146 L 122.5 145 Z " /><path fill="rgb(256,256,256)" stroke="rgb(256,256,256)" stroke-width="1" opacity="1" d="M 119.5 146 L 121 146.5 L 115.5 150 L 115 148 L 119.5 146 Z " /><path fill="rgb(256,256,256)" stroke="rgb(256,256,256)" stroke-width="1" opacity="1" d="M 135.5 146 L 139 147.5 L 137.5 148 L 135.5 146 Z " /><path fill="rgb(256,256,256)" stroke="rgb(256,256,256)" stroke-width="1" opacity="1" d="M 159.5 146 L 160 151 L 155.5 153 L 156.5 151 L 159 149.5 L 159.5 146 Z " /><path fill="rgb(256,256,256)" stroke="rgb(256,256,256)" stroke-width="1" opacity="1" d="M 69.5 147 Q 71.7 150.3 77 150.5 L 74.5 151 L 69 149 L 69.5 147 Z " /><path fill="rgb(256,256,256)" stroke="rgb(256,256,256)" stroke-width="1" opacity="1" d="M 155.5 147 L 156 149 Q 152.8 151.6 145.5 151 L 145.5 150 Q 152.9 150.9 155.5 147 Z " /><path fill="rgb(256,256,256)" stroke="rgb(256,256,256)" stroke-width="1" opacity="1" d="M 94.5 148 L 98 148.5 L 94.5 149 L 94.5 148 Z " /><path fill="rgb(256,256,256)" stroke="rgb(256,256,256)" stroke-width="1" opacity="1" d="M 99.5 148 L 109 152.5 L 107.5 152 L 99.5 149 L 99.5 148 Z " /><path fill="rgb(256,256,256)" stroke="rgb(256,256,256)" stroke-width="1" opacity="1" d="M 108.5 148 L 111.5 150 Q 112.8 147.7 114 150.5 L 113 154.5 L 117.5 151 Q 121.6 147.1 130.5 148 L 130.5 149 Q 118.5 148.5 114 155.5 Q 113.3 157.8 115.5 157 L 115.5 158 L 108 157.5 L 111 157 L 110 154.5 L 112 154.5 Q 112.8 150.8 110.5 150 L 108.5 148 Z " /><path fill="rgb(256,256,256)" stroke="rgb(256,256,256)" stroke-width="1" opacity="1" d="M 65.5 149 L 66.5 151 Q 63.7 151.7 65.5 149 Z " /><path fill="rgb(256,256,256)" stroke="rgb(256,256,256)" stroke-width="1" opacity="1" d="M 90.5 149 L 89.5 151 L 86.5 152 L 86.5 151 L 90.5 149 Z " /><path fill="rgb(256,256,256)" stroke="rgb(256,256,256)" stroke-width="1" opacity="1" d="M 141.5 149 L 144 149.5 L 141.5 150 L 141.5 149 Z " /><path fill="rgb(256,256,256)" stroke="rgb(256,256,256)" stroke-width="1" opacity="1" d="M 135.5 150 L 146 153.5 L 142.5 154 L 135.5 151 L 135.5 150 Z " /><path fill="rgb(256,256,256)" stroke="rgb(256,256,256)" stroke-width="1" opacity="1" d="M 68.5 151 L 72 152.5 L 69.5 153 L 68.5 151 Z " /><path fill="rgb(256,256,256)" stroke="rgb(256,256,256)" stroke-width="1" opacity="1" d="M 83.5 152 L 85 152.5 L 82.5 154 L 83.5 152 Z " /><path fill="rgb(256,256,256)" stroke="rgb(256,256,256)" stroke-width="1" opacity="1" d="M 153.5 152 L 152.5 154 L 150 153.5 L 153.5 152 Z " /><path fill="rgb(256,256,256)" stroke="rgb(256,256,256)" stroke-width="1" opacity="1" d="M 73.5 153 L 78 153.5 L 73.5 154 L 73.5 153 Z " /></svg>